<svg xmlns="http://www.w3.org/2000/svg" viewBox="0 0 1200 700" width="1200" height="700" role="img" aria-label="Vela workspace screenshot" font-family="ui-sans-serif, system-ui, -apple-system, Segoe UI, Roboto, sans-serif">
  <defs>
    <linearGradient id="vg" x1="0" y1="0" x2="1" y2="1">
      <stop offset="0" stop-color="#8b5cf6"/>
      <stop offset="1" stop-color="#38bdf8"/>
    </linearGradient>
  </defs>

  <!-- canvas -->
  <rect width="1200" height="700" fill="#ffffff"/>

  <!-- sidebar -->
  <rect width="232" height="700" fill="#fafafb"/>
  <line x1="232" y1="0" x2="232" y2="700" stroke="#ececef"/>
  <rect x="24" y="26" width="30" height="30" rx="9" fill="url(#vg)"/>
  <text x="66" y="47" font-size="18" font-weight="700" fill="#0a0a0f">Vela</text>

  <!-- sidebar nav -->
  <g fill="#565d68" font-size="14">
    <rect x="20" y="92" width="192" height="36" rx="10" fill="#eef1ff"/>
    <rect x="34" y="104" width="13" height="13" rx="4" fill="#8b5cf6"/>
    <text x="60" y="115" fill="#0a0a0f" font-weight="600">Home</text>

    <rect x="34" y="146" width="13" height="13" rx="4" fill="#c7cbd4"/>
    <text x="60" y="157">Projects</text>

    <rect x="34" y="186" width="13" height="13" rx="4" fill="#c7cbd4"/>
    <text x="60" y="197">Automations</text>

    <rect x="34" y="226" width="13" height="13" rx="4" fill="#c7cbd4"/>
    <text x="60" y="237">Inbox</text>

    <rect x="34" y="266" width="13" height="13" rx="4" fill="#c7cbd4"/>
    <text x="60" y="277">Insights</text>
  </g>

  <!-- top bar -->
  <line x1="232" y1="68" x2="1200" y2="68" stroke="#ececef"/>
  <text x="260" y="44" font-size="18" font-weight="700" fill="#0a0a0f">Product Launch</text>
  <rect x="262" y="78" width="0" height="0"/>
  <g>
    <circle cx="1120" cy="34" r="14" fill="#c4b5fd"/>
    <circle cx="1144" cy="34" r="14" fill="#7dd3fc"/>
    <circle cx="1168" cy="34" r="14" fill="#6ee7b7"/>
  </g>

  <!-- automation banner -->
  <rect x="260" y="92" width="468" height="38" rx="10" fill="#f3f0ff" stroke="#e6def9"/>
  <path d="M281 104 l-7 11 h6 l-2 9 8 -12 h-6 z" fill="#8b5cf6"/>
  <text x="298" y="116" font-size="13" fill="#4c1d95" font-weight="600">Automation</text>
  <text x="372" y="116" font-size="13" fill="#565d68">when status &#8594; Done, notify #launch</text>

  <!-- board columns -->
  <g font-size="13" font-weight="600" fill="#565d68">
    <text x="260" y="166">To do · 3</text>
    <text x="572" y="166">In progress · 2</text>
    <text x="884" y="166">Done · 4</text>
  </g>

  <!-- column: To do -->
  <g>
    <rect x="260" y="180" width="288" height="92" rx="14" fill="#ffffff" stroke="#ececef"/>
    <rect x="276" y="196" width="58" height="18" rx="9" fill="#ede9fe"/>
    <text x="286" y="209" font-size="11" fill="#6d28d9" font-weight="600">Design</text>
    <rect x="276" y="226" width="200" height="11" rx="5" fill="#e8eaee"/>
    <rect x="276" y="244" width="150" height="11" rx="5" fill="#eef0f3"/>
    <circle cx="520" cy="250" r="11" fill="#c4b5fd"/>

    <rect x="260" y="284" width="288" height="92" rx="14" fill="#ffffff" stroke="#ececef"/>
    <rect x="276" y="300" width="74" height="18" rx="9" fill="#dbeafe"/>
    <text x="286" y="313" font-size="11" fill="#1d4ed8" font-weight="600">Research</text>
    <rect x="276" y="330" width="220" height="11" rx="5" fill="#e8eaee"/>
    <rect x="276" y="348" width="140" height="11" rx="5" fill="#eef0f3"/>
    <circle cx="520" cy="354" r="11" fill="#7dd3fc"/>
  </g>

  <!-- column: In progress -->
  <g>
    <rect x="572" y="180" width="288" height="92" rx="14" fill="#ffffff" stroke="#ececef"/>
    <rect x="588" y="196" width="64" height="18" rx="9" fill="#fef3c7"/>
    <text x="598" y="209" font-size="11" fill="#b45309" font-weight="600">Build</text>
    <rect x="588" y="226" width="210" height="11" rx="5" fill="#e8eaee"/>
    <rect x="588" y="244" width="160" height="11" rx="5" fill="#eef0f3"/>
    <circle cx="832" cy="250" r="11" fill="#6ee7b7"/>

    <rect x="572" y="284" width="288" height="92" rx="14" fill="#ffffff" stroke="#ececef"/>
    <rect x="588" y="300" width="82" height="18" rx="9" fill="#ede9fe"/>
    <text x="598" y="313" font-size="11" fill="#6d28d9" font-weight="600">Content</text>
    <rect x="588" y="330" width="190" height="11" rx="5" fill="#e8eaee"/>
    <rect x="588" y="348" width="120" height="11" rx="5" fill="#eef0f3"/>
    <circle cx="832" cy="354" r="11" fill="#c4b5fd"/>
  </g>

  <!-- column: Done -->
  <g>
    <rect x="884" y="180" width="288" height="92" rx="14" fill="#ffffff" stroke="#ececef"/>
    <rect x="900" y="196" width="92" height="18" rx="9" fill="#dcfce7"/>
    <text x="910" y="209" font-size="11" fill="#15803d" font-weight="600">Shipped</text>
    <rect x="900" y="226" width="200" height="11" rx="5" fill="#e8eaee"/>
    <rect x="900" y="244" width="150" height="11" rx="5" fill="#eef0f3"/>
    <circle cx="1144" cy="250" r="11" fill="#6ee7b7"/>

    <rect x="884" y="284" width="288" height="92" rx="14" fill="#ffffff" stroke="#ececef"/>
    <rect x="900" y="300" width="64" height="18" rx="9" fill="#dcfce7"/>
    <text x="910" y="313" font-size="11" fill="#15803d" font-weight="600">QA</text>
    <rect x="900" y="330" width="220" height="11" rx="5" fill="#e8eaee"/>
    <rect x="900" y="348" width="130" height="11" rx="5" fill="#eef0f3"/>
    <circle cx="1144" cy="354" r="11" fill="#7dd3fc"/>
  </g>

  <!-- activity strip -->
  <line x1="232" y1="412" x2="1200" y2="412" stroke="#ececef"/>
  <text x="260" y="446" font-size="13" font-weight="700" fill="#0a0a0f">Activity</text>
  <g font-size="13" fill="#565d68">
    <circle cx="266" cy="478" r="6" fill="#8b5cf6"/>
    <text x="284" y="483">Automation moved “Landing page” to Done</text>
    <circle cx="266" cy="512" r="6" fill="#38bdf8"/>
    <text x="284" y="517">Priya commented on “Launch checklist”</text>
    <circle cx="266" cy="546" r="6" fill="#34d399"/>
    <text x="284" y="551">Slack notified #launch · 2 min ago</text>
  </g>
</svg>
